HIERARCHY
ROOT Torso
{
	OFFSET 0.000000 0.000000 0.000000
	CHANNELS 6 Xposition Yposition Zposition Zrotation Yrotation Xrotation
	JOINT LeftHip
	{
		OFFSET 0.000000 0.000000 0.000000
		CHANNELS 6 Xposition Yposition Zposition Zrotation Yrotation Xrotation
		JOINT LeftThigh
		{
			OFFSET 0.055000 0.010000 -0.025000
			CHANNELS 3 Zrotation Yrotation Xrotation
			JOINT LeftShank
			{
				OFFSET 0.000000 -0.015000 -0.110000
				CHANNELS 6 Xposition Yposition Zposition Zrotation Yrotation Xrotation
				JOINT LeftFoot
				{
					OFFSET 0.000000 0.005000 -0.110000
					CHANNELS 6 Xposition Yposition Zposition Zrotation Yrotation Xrotation
					JOINT LeftFootBase
					{
						OFFSET 0.000000 -0.030000 -0.035000
						CHANNELS 6 Xposition Yposition Zposition Zrotation Yrotation Xrotation
						End Site
						{
							OFFSET 0.000000 -0.090000 0.000000
						}
					}
				}
			}
		}
	}
	JOINT RightHip
	{
		OFFSET 0.000000 0.000000 0.000000
		CHANNELS 6 Xposition Yposition Zposition Zrotation Yrotation Xrotation
		JOINT RightThigh
		{
			OFFSET -0.055000 0.010000 -0.025000
			CHANNELS 3 Zrotation Yrotation Xrotation
			JOINT RightShank
			{
				OFFSET 0.000000 -0.015000 -0.110000
				CHANNELS 6 Xposition Yposition Zposition Zrotation Yrotation Xrotation
				JOINT RightFoot
				{
					OFFSET 0.000000 0.005000 -0.110000
					CHANNELS 6 Xposition Yposition Zposition Zrotation Yrotation Xrotation
					JOINT RightFootBase
					{
						OFFSET 0.000000 -0.030000 -0.035000
						CHANNELS 6 Xposition Yposition Zposition Zrotation Yrotation Xrotation
						End Site
						{
							OFFSET 0.000000 -0.090000 0.000000
						}
					}
				}
			}
		}
	}
	JOINT Back
	{
		OFFSET 0.000000 0.000000 0.000000
		CHANNELS 6 Xposition Yposition Zposition Xrotation Yrotation Zrotation
		JOINT Neck
		{
			OFFSET 0.000000 -0.000000 0.140000
			CHANNELS 3 Zrotation Yrotation Xrotation
			JOINT Head
			{
				OFFSET 0.000000 -0.000000 0.040000
				CHANNELS 6 Xposition Yposition Zposition Zrotation Yrotation Xrotation
				End Site
				{
					OFFSET 0.000000 -0.000000 0.065000
				}
			}
		}
		JOINT LeftShoulder
		{
			OFFSET 0.000000 -0.000000 0.140000
			CHANNELS 3 Zrotation Yrotation Xrotation
			JOINT LeftUpperarm
			{
				OFFSET 0.098000 -0.000000 0.025000
				CHANNELS 6 Xposition Yposition Zposition Zrotation Yrotation Xrotation
				JOINT LeftLowerarm
				{
					OFFSET 0.000000 -0.090000 0.009000
					CHANNELS 6 Xposition Yposition Zposition Zrotation Yrotation Xrotation
					End Site
					{
						OFFSET 0.000000 -0.100000 -0.000000
					}
				}
			}
		}
		JOINT RightShoulder
		{
			OFFSET 0.000000 -0.000000 0.140000
			CHANNELS 3 Zrotation Yrotation Xrotation
			JOINT RightUpperarm
			{
				OFFSET -0.098000 -0.000000 0.025000
				CHANNELS 6 Xposition Yposition Zposition Zrotation Yrotation Xrotation
				JOINT RightLowerarm
				{
					OFFSET 0.000000 -0.090000 0.009000
					CHANNELS 6 Xposition Yposition Zposition Zrotation Yrotation Xrotation
					End Site
					{
						OFFSET 0.000000 -0.100000 -0.000000
					}
				}
			}
		}
	}
}
MOTION
Frames: 5
Frame Time: 0.041667
0.000000 0.000000 0.000000 -3.683353 -2.214021 -5.652208 0.000000 0.000000 0.000000 -41.793005 27.596715 16.742563 -139.757487 5.655973 48.624728 0.000000 -0.015000 -0.110000 0.000031 0.000048 -33.409044 -0.000000 0.005000 -0.110000 -177.895760 25.147672 -40.497838 -0.000000 -0.030000 -0.035000 -8.804233 0.467801 32.704370 0.000000 0.000000 0.000000 44.797059 -30.352295 16.833237 129.518241 -7.907632 48.136578 -0.000000 -0.015000 -0.110000 0.000015 -0.000081 -78.550181 0.000000 0.005000 -0.110000 157.716486 -24.517951 -19.443945 -0.000000 -0.030000 -0.035000 7.606176 2.653366 41.717177 0.000000 0.000000 0.000000 6.020813 1.584039 0.931939 0.457213 -0.936849 -1.041097 0.000000 -0.000000 0.040000 -0.801777 0.617499 19.606770 5.135729 -8.300014 -4.143022 0.098000 0.000000 0.025000 153.939364 -10.060483 85.220639 0.000000 -0.090000 0.009000 -17.998872 3.268821 26.140230 -3.715056 7.932116 -5.532036 -0.098000 0.000000 0.025000 -158.121133 8.762312 89.079327 0.000000 -0.090000 0.009000 14.362732 -1.740991 19.466813 
0.000000 0.000000 0.000000 -3.957593 -2.667033 -5.848554 0.000000 0.000000 0.000000 -41.792999 27.596715 16.742547 -140.187638 5.130933 47.718925 -0.000000 -0.015000 -0.110000 0.000083 0.000013 -33.334325 -0.000000 0.005000 -0.110000 -177.634915 25.204259 -41.071881 -0.000000 -0.030000 -0.035000 -8.906963 0.533367 32.368659 0.000000 0.000000 0.000000 44.797063 -30.352288 16.833247 129.019815 -8.417308 49.609324 -0.000000 -0.015000 -0.110000 0.000002 -0.000021 -80.314207 -0.000000 0.005000 -0.110000 158.265728 -25.036550 -21.868369 -0.000000 -0.030000 -0.035000 8.045456 2.272921 40.140062 0.000000 0.000000 0.000000 5.940946 1.968172 1.028533 0.389463 -0.917877 0.014039 0.000000 -0.000000 0.040000 -0.999067 0.653942 19.235513 5.343488 -8.226361 -4.478935 0.098000 0.000000 0.025000 153.506521 -10.190537 84.565392 -0.000000 -0.090000 0.009000 -18.217913 3.377163 26.550334 -3.602990 7.953451 -5.875144 -0.098000 0.000000 0.025000 -157.977822 9.088053 88.318232 0.000000 -0.090000 0.009000 14.425370 -1.763169 19.580050 
0.000000 0.000000 0.000000 -3.333527 -2.951706 -5.961550 0.000000 0.000000 0.000000 -41.792992 27.596720 16.742546 -140.569582 4.832281 47.097201 0.000000 -0.015000 -0.110000 0.000025 0.000006 -33.213366 -0.000000 0.005000 -0.110000 -178.125487 25.209414 -41.440469 -0.000000 -0.030000 -0.035000 -8.770858 0.446336 32.813772 0.000000 0.000000 0.000000 44.797066 -30.352295 16.833247 127.994316 -8.318725 51.316219 -0.000000 -0.015000 -0.110000 0.000029 -0.000026 -81.878225 0.000000 0.005000 -0.110000 158.152320 -25.434636 -23.749184 -0.000000 -0.030000 -0.035000 8.040051 2.277464 40.159115 0.000000 0.000000 0.000000 6.451007 2.396040 0.711020 -0.285770 -1.004503 -0.724251 -0.000000 -0.000000 0.040000 -0.995906 0.585084 19.877906 4.638750 -8.594957 -4.237206 0.098000 0.000000 0.025000 153.705170 -9.925285 85.266087 -0.000000 -0.090000 0.009000 -18.269947 3.403179 26.647776 -4.232242 7.626338 -5.579091 -0.098000 0.000000 0.025000 -157.753287 8.760759 88.861738 0.000000 -0.090000 0.009000 14.396119 -1.752790 19.527265 
0.000000 0.000000 0.000000 -3.164569 -3.144208 -6.124150 0.000000 0.000000 0.000000 -41.792999 27.596732 16.742554 -140.831397 4.586960 46.311531 0.000000 -0.015000 -0.110000 0.000077 -0.000004 -33.014300 -0.000000 0.005000 -0.110000 -178.222653 25.233799 -41.839290 -0.000000 -0.030000 -0.035000 -8.667145 0.379072 33.153964 0.000000 0.000000 0.000000 44.797066 -30.352295 16.833247 127.383451 -8.298740 52.735249 0.000000 -0.015000 -0.110000 -0.000049 -0.000054 -83.213451 0.000000 0.005000 -0.110000 159.018046 -25.769889 -25.666454 -0.000000 -0.030000 -0.035000 8.871228 1.611644 37.261967 0.000000 0.000000 0.000000 6.639380 2.694822 0.622837 -0.301002 -1.386251 0.023877 -0.000000 -0.000000 0.040000 -0.834179 0.814512 18.962560 4.549166 -8.680587 -5.149627 0.098000 0.000000 0.025000 153.658520 -10.153524 84.333801 -0.000000 -0.090000 0.009000 -18.371259 3.454139 26.837955 -4.574611 7.400695 -6.464275 -0.098000 0.000000 0.025000 -157.769843 9.151224 87.764734 0.000000 -0.090000 0.009000 14.468178 -1.778417 19.657368 
0.000000 0.000000 0.000000 -3.276291 -3.492497 -6.213598 0.000000 0.000000 0.000000 -41.792999 27.596732 16.742556 -140.991278 4.059741 45.659340 -0.000000 -0.015000 -0.110000 0.000026 0.000028 -32.972663 -0.000000 0.005000 -0.110000 -178.248225 25.263999 -42.293132 -0.000000 -0.030000 -0.035000 -8.665318 0.377845 33.160162 0.000000 0.000000 0.000000 44.797080 -30.352295 16.833245 126.868605 -8.578777 54.160419 -0.000000 -0.015000 -0.110000 -0.000036 -0.000015 -84.339695 0.000000 0.005000 -0.110000 159.371085 -26.007713 -27.048557 -0.000000 -0.030000 -0.035000 9.109520 1.433058 36.450343 0.000000 0.000000 0.000000 6.552568 2.973311 0.592834 0.039672 -1.651361 -0.009530 0.000000 -0.000000 0.040000 -0.414876 1.335123 18.806108 4.395354 -8.758132 -4.578763 0.098000 0.000000 0.025000 153.533350 -9.883102 84.797727 0.000000 -0.090000 0.009000 -18.394615 3.465874 26.881727 -4.567852 7.412791 -5.890035 -0.098000 0.000000 0.025000 -157.829976 9.071766 88.051930 0.000000 -0.090000 0.009000 14.501117 -1.790223 19.716823 
